<svg xmlns="http://www.w3.org/2000/svg" viewBox="0 0 1024 1024" role="img" aria-labelledby="title desc">
<title id="title">KOVIAN</title><desc id="desc">Símbolo K geométrico em verde, ciano e azul, com moldura branca e fundo grafite.</desc>
<defs>
<linearGradient id="frame" x1="0" y1="0" x2=".9" y2="1"><stop stop-color="#FFFFFF"/><stop offset=".58" stop-color="#F8FCFD"/><stop offset="1" stop-color="#DCE7EB"/></linearGradient>
<linearGradient id="base" x1="0" y1="0" x2="1" y2="1"><stop stop-color="#20252C"/><stop offset=".5" stop-color="#090B10"/><stop offset="1" stop-color="#030406"/></linearGradient>
<linearGradient id="stem" x1="0" y1="0" x2=".1" y2="1"><stop stop-color="#008C91"/><stop offset=".48" stop-color="#00CDB2"/><stop offset="1" stop-color="#00E6B0"/></linearGradient>
<linearGradient id="front" x1=".1" y1="0" x2=".9" y2="1"><stop stop-color="#00F0A8"/><stop offset=".52" stop-color="#00DDB0"/><stop offset="1" stop-color="#00B8C9"/></linearGradient>
<linearGradient id="blue" x1="0" y1="0" x2="1" y2="1"><stop stop-color="#087E9F"/><stop offset="1" stop-color="#00658F"/></linearGradient>
<linearGradient id="back" x1="0" y1="0" x2="1" y2="1"><stop stop-color="#087D8A"/><stop offset="1" stop-color="#006B83"/></linearGradient>
</defs>
<rect width="1024" height="1024" fill="#000"/>
<rect x="76" y="76" width="872" height="872" rx="150" fill="url(#frame)"/>
<rect x="164" y="164" width="696" height="696" rx="112" fill="url(#base)" stroke="#1A2026" stroke-width="8"/>
<path d="M414 286h8c12 0 21 5 29 16l90 117-43 57-64-79-20-27z" fill="url(#back)"/>
<path d="M322 286h92c12 0 20 5 27 15l9 13v410c0 14-10 24-24 24h-104c-14 0-22-10-22-24V310c0-14 10-24 22-24z" fill="url(#stem)" stroke="#28F3C6" stroke-opacity=".55" stroke-width="2"/>
<path d="M300 678 603 304c10-13 21-20 38-20h101c14 0 19 10 10 22L472 681l-27 38c-9 13-20 19-35 19h-88c-14 0-22-9-22-22z" fill="url(#front)" stroke="#B6FFE7" stroke-opacity=".75" stroke-width="2"/>
<path d="M500 626 738 734c8 4 8 15-3 15H625c-14 0-23-5-31-16L486 612z" fill="url(#blue)"/>
</svg>